<?xml version="1.0" standalone="no"?>
<!DOCTYPE svg PUBLIC "-//W3C//DTD SVG 20010904//EN"
 "http://www.w3.org/TR/2001/REC-SVG-20010904/DTD/svg10.dtd">
<svg version="1.0" xmlns="http://www.w3.org/2000/svg"
 width="512.000000pt" height="504.000000pt" viewBox="0 0 512.000000 504.000000"
 preserveAspectRatio="xMidYMid meet">

<g transform="translate(0.000000,504.000000) scale(0.100000,-0.100000)"
fill="#000000" stroke="none">
<path d="M2340 5033 c-358 -34 -634 -109 -925 -252 -508 -249 -901 -641 -1153
-1150 -122 -245 -204 -515 -243 -801 -17 -124 -17 -496 0 -620 79 -574 331
-1085 731 -1480 392 -389 888 -630 1465 -712 137 -19 513 -16 655 5 181 28
443 93 438 108 -2 4 -31 32 -64 62 -75 66 -154 153 -191 208 -30 46 -15 45
-178 14 -112 -22 -425 -31 -566 -16 -730 76 -1373 526 -1694 1185 -350 717
-268 1574 212 2214 73 96 255 286 351 365 300 245 662 404 1057 462 148 23
442 23 590 0 981 -146 1723 -916 1826 -1895 14 -136 6 -438 -15 -550 -7 -41
-13 -75 -12 -76 0 0 30 -20 66 -44 36 -24 109 -86 162 -138 l97 -94 10 39
c167 626 85 1310 -226 1868 -453 812 -1312 1315 -2228 1303 -71 0 -146 -3
-165 -5z"/>
<path d="M2395 4221 c-5 -8 -105 -1580 -105 -1652 0 -20 -82 -120 -350 -425
-192 -219 -349 -406 -350 -414 0 -19 210 -230 228 -230 8 0 222 179 478 398
l464 397 0 65 c-1 124 -97 1847 -104 1859 -9 14 -252 16 -261 2z"/>
<path d="M3945 2130 c-165 -18 -358 -91 -494 -187 -477 -339 -595 -983 -268
-1468 50 -74 154 -183 227 -239 417 -319 993 -291 1377 67 139 130 249 314
300 503 24 89 27 116 27 269 0 153 -3 180 -27 269 -116 429 -479 739 -922 786
-100 11 -118 11 -220 0z m283 -498 c2 -30 -6 -212 -18 -405 -17 -303 -23 -354
-37 -364 -11 -9 -53 -13 -118 -13 -85 0 -105 3 -117 18 -13 14 -19 91 -35 402
-12 232 -16 392 -11 403 8 16 24 17 171 15 l162 -3 3 -53z m-54 -988 c20 -20
23 -213 4 -232 -16 -16 -220 -16 -236 0 -16 16 -16 220 0 236 19 19 212 16
232 -4z"/>
</g>
</svg>
