<?xml version="1.0" standalone="no"?>
<!DOCTYPE svg PUBLIC "-//W3C//DTD SVG 20010904//EN"
 "http://www.w3.org/TR/2001/REC-SVG-20010904/DTD/svg10.dtd">
<svg version="1.0" xmlns="http://www.w3.org/2000/svg"
 width="512.000000pt" height="512.000000pt" viewBox="0 0 512.000000 512.000000"
 preserveAspectRatio="xMidYMid meet">

<g transform="translate(0.000000,512.000000) scale(0.100000,-0.100000)"
fill="#000000" stroke="none">
<path d="M2325 4490 c-115 -39 -308 -102 -427 -141 -202 -66 -219 -73 -252
-110 l-36 -39 0 -556 c0 -607 -2 -585 60 -637 16 -14 69 -38 115 -52 60 -18
83 -29 78 -38 -4 -7 -99 -140 -212 -297 -113 -157 -206 -286 -207 -288 -1 -2
-52 13 -113 32 -61 20 -123 36 -138 36 -40 0 -867 -278 -897 -301 -57 -45 -56
-32 -56 -619 0 -595 -1 -585 61 -633 24 -18 163 -65 456 -156 232 -72 431
-131 444 -131 21 0 538 156 780 236 110 36 147 62 168 117 6 16 11 102 11 198
l0 169 400 0 400 0 0 -170 c0 -192 7 -221 61 -263 24 -18 163 -65 456 -156
232 -72 431 -131 444 -131 21 0 538 156 780 236 110 36 147 62 168 117 7 19
11 209 11 561 0 532 0 532 -22 576 -13 25 -37 52 -54 62 -44 26 -848 288 -881
288 -15 0 -86 -20 -158 -45 -71 -25 -135 -45 -141 -45 -11 0 -407 550 -419
583 -5 11 18 21 92 42 122 34 165 56 195 97 l23 33 3 550 2 550 -22 45 c-13
24 -37 52 -54 62 -44 26 -848 288 -881 288 -15 0 -122 -32 -238 -70z m397
-312 c87 -29 158 -55 158 -58 0 -4 -72 -28 -160 -55 l-159 -48 -161 48 c-88
27 -160 52 -160 55 0 5 294 107 315 109 5 1 80 -23 167 -51z m-597 -362 c99
-32 201 -64 228 -72 l47 -16 0 -314 c0 -173 -3 -314 -7 -314 -5 0 -111 33
-238 74 l-230 73 -3 318 c-2 252 0 316 10 312 7 -2 94 -30 193 -61z m1068
-567 c-7 -6 -454 -149 -467 -149 -3 0 -6 142 -6 315 l0 314 38 11 c20 5 127
39 237 74 l200 64 3 -311 c1 -171 -1 -314 -5 -318z m-828 -474 c94 -30 183
-55 196 -55 13 0 88 20 167 44 l143 44 23 -32 c119 -160 395 -570 389 -576 -4
-4 -61 -25 -126 -46 -101 -32 -123 -43 -152 -76 l-35 -38 0 -220 0 -220 -405
0 -405 0 0 203 c0 224 -10 267 -66 303 -15 10 -96 41 -180 69 l-154 50 212
303 c116 166 213 302 216 302 2 0 82 -25 177 -55z m-1003 -757 c87 -29 158
-55 158 -58 0 -4 -72 -28 -160 -55 l-159 -48 -161 48 c-88 27 -160 52 -160 55
0 5 294 107 315 109 5 1 80 -23 167 -51z m2720 0 c87 -29 158 -55 158 -58 0
-4 -72 -28 -160 -55 l-159 -48 -161 48 c-88 27 -160 52 -160 55 0 5 294 107
315 109 5 1 80 -23 167 -51z m-3317 -362 c99 -32 201 -64 228 -72 l47 -16 0
-314 c0 -173 -3 -314 -7 -314 -5 0 -111 33 -238 74 l-230 73 -3 318 c-2 252 0
316 10 312 7 -2 94 -30 193 -61z m1068 -567 c-7 -6 -454 -149 -467 -149 -3 0
-6 142 -6 315 l0 314 38 11 c20 5 127 39 237 74 l200 64 3 -311 c1 -171 -1
-314 -5 -318z m1652 567 c99 -32 201 -64 228 -72 l47 -16 0 -314 c0 -173 -3
-314 -7 -314 -5 0 -111 33 -238 74 l-230 73 -3 318 c-2 252 0 316 10 312 7 -2
94 -30 193 -61z m1068 -567 c-7 -6 -454 -149 -467 -149 -3 0 -6 142 -6 315 l0
314 38 11 c20 5 127 39 237 74 l200 64 3 -311 c1 -171 -1 -314 -5 -318z"/>
</g>
</svg>
