<?xml version="1.0" standalone="no"?>
<!DOCTYPE svg PUBLIC "-//W3C//DTD SVG 20010904//EN"
 "http://www.w3.org/TR/2001/REC-SVG-20010904/DTD/svg10.dtd">
<svg version="1.0" xmlns="http://www.w3.org/2000/svg"
 width="980.000000pt" height="980.000000pt" viewBox="0 0 980.000000 980.000000"
 preserveAspectRatio="xMidYMid meet">

<g transform="translate(0.000000,980.000000) scale(0.100000,-0.100000)"
fill="#000000" stroke="none">
<path d="M4640 9793 c-381 -26 -614 -62 -940 -143 -590 -147 -1173 -420 -1675
-785 -406 -296 -815 -706 -1103 -1108 -728 -1016 -1039 -2244 -881 -3482 118
-922 488 -1770 1094 -2507 140 -170 461 -491 633 -633 1073 -885 2424 -1273
3787 -1090 1037 140 1999 607 2750 1337 299 290 538 586 766 951 107 171 304
560 378 747 623 1576 404 3336 -584 4695 -284 390 -662 772 -1050 1061 -850
632 -1887 971 -2940 962 -104 -1 -210 -3 -235 -5z m597 -714 c832 -69 1625
-383 2270 -898 732 -584 1244 -1385 1467 -2293 36 -144 74 -363 98 -558 21
-167 17 -730 -6 -905 -27 -213 -61 -397 -105 -566 -192 -744 -587 -1423 -1138
-1959 -588 -573 -1319 -958 -2113 -1114 -290 -57 -439 -70 -800 -71 -350 0
-417 5 -700 51 -595 97 -1173 331 -1685 682 -330 225 -653 529 -921 863 -87
109 -280 395 -349 519 -274 487 -442 994 -517 1559 -19 144 -22 212 -22 511 0
299 3 367 22 511 90 684 315 1281 693 1840 352 520 868 997 1407 1299 542 303
1149 487 1762 533 111 8 521 6 637 -4z"/>
<path d="M2635 7160 l-330 -330 965 -965 965 -965 -963 -963 -962 -962 332
-333 333 -332 962 962 963 963 963 -963 962 -962 333 332 332 333 -962 962
-963 963 965 965 965 965 -333 332 -332 333 -965 -965 -965 -965 -963 963
c-529 529 -964 962 -967 962 -3 0 -154 -149 -335 -330z"/>
</g>
</svg>
