<?xml version="1.0" encoding="utf-8"?>
<svg viewBox="45.108 89.172 494.92 360.005" xmlns="http://www.w3.org/2000/svg">
  <g id="Layer_1" transform="matrix(-1, 0, 0, -1, 384.194885, 503.92627)">
    <title>Layer 1</title>
    <g transform="matrix(-0.94929, -0.000016, 0.00419, -0.94929, 400.913055, 425.259064)" stroke="null" id="svg_5" style="">
      <path opacity="undefined" d="m276.58659,16.62896l0,221l-148.04806,0l0,-221l148.04806,0z" id="svg_1" style="stroke: rgb(0, 0, 0); paint-order: fill; stroke-width: 0px; fill: rgb(43, 255, 0);"/>
      <path opacity="undefined" d="m340.74075,226.2963l-136.94444,164l-136.94444,-164l273.88889,0z" id="svg_2" style="stroke: rgb(0, 0, 0); paint-order: fill; stroke-width: 0px; fill: rgb(43, 255, 0);"/>
      <path opacity="undefined" d="m276.58659,16.62896l0,221l-148.04806,0l0,-221l148.04806,0z" id="svg_3" style="stroke: rgb(0, 0, 0); paint-order: fill; stroke-width: 0px; fill: rgb(43, 255, 0);"/>
      <path opacity="undefined" d="m340.74075,226.2963l-136.94444,164l-136.94444,-164l273.88889,0z" id="svg_4" style="stroke: rgb(0, 0, 0); paint-order: fill; stroke-width: 0px; fill: rgb(43, 255, 0);"/>
    </g>
    <g transform="matrix(0.94929, 0.000016, -0.00419, 0.94929, -217.659592, 44.24437)" stroke="null" id="g-1" style="">
      <path opacity="undefined" d="m276.58659,16.62896l0,221l-148.04806,0l0,-221l148.04806,0z" id="path-1" style="stroke: rgb(0, 0, 0); paint-order: fill; stroke-width: 0px;"/>
      <path opacity="undefined" d="m340.74075,226.2963l-136.94444,164l-136.94444,-164l273.88889,0z" id="path-2" style="stroke: rgb(0, 0, 0); paint-order: fill; stroke-width: 0px;"/>
      <path opacity="undefined" d="m276.58659,16.62896l0,221l-148.04806,0l0,-221l148.04806,0z" id="path-3" style="stroke: rgb(0, 0, 0); paint-order: fill; stroke-width: 0px;"/>
      <path opacity="undefined" d="m340.74075,226.2963l-136.94444,164l-136.94444,-164l273.88889,0z" id="path-4" style="stroke: rgb(0, 0, 0); paint-order: fill; stroke-width: 0px;"/>
    </g>
  </g>
</svg>