<?xml version="1.0" encoding="iso-8859-1"?>
<!-- Generator: Adobe Illustrator 16.0.0, SVG Export Plug-In . SVG Version: 6.00 Build 0)  -->
<!DOCTYPE svg PUBLIC "-//W3C//DTD SVG 1.1//EN" "http://www.w3.org/Graphics/SVG/1.1/DTD/svg11.dtd">
<svg version="1.1" id="Capa_1" xmlns="http://www.w3.org/2000/svg" xmlns:xlink="http://www.w3.org/1999/xlink" x="0px" y="0px"
	 width="46.363px" height="46.363px" viewBox="0 0 46.363 46.363" style="enable-background:new 0 0 46.363 46.363;"
	 xml:space="preserve">
<g>
	<path d="M46.363,23.181c0,2.6-2.105,4.705-4.705,4.705c-1.947,0-3.617-1.184-4.334-2.869h-3.193
		c-0.285,1.698-0.947,3.264-1.908,4.609l2.26,2.259c1.697-0.688,3.716-0.343,5.093,1.034c1.836,1.836,1.836,4.816,0,6.652
		c-1.838,1.838-4.815,1.838-6.653,0c-1.378-1.377-1.722-3.395-1.035-5.093l-2.261-2.258c-1.345,0.96-2.911,1.624-4.608,1.907v3.195
		c1.688,0.715,2.869,2.388,2.869,4.332c0,2.601-2.105,4.705-4.706,4.705c-2.599,0-4.705-2.104-4.705-4.705
		c0-1.944,1.183-3.617,2.869-4.332v-3.195c-1.698-0.283-3.264-0.947-4.608-1.907l-2.259,2.258c0.687,1.698,0.342,3.716-1.035,5.095
		c-1.837,1.836-4.816,1.836-6.654,0c-1.837-1.838-1.837-4.817,0-6.653c1.376-1.378,3.395-1.724,5.093-1.034l2.259-2.262
		c-0.961-1.346-1.624-2.909-1.907-4.606H9.038c-0.716,1.687-2.386,2.869-4.333,2.869C2.107,27.887,0,25.78,0,23.182
		c0-2.599,2.107-4.705,4.705-4.705c1.947,0,3.617,1.185,4.333,2.869h3.196c0.283-1.697,0.946-3.263,1.907-4.607l-2.259-2.261
		c-1.698,0.688-3.717,0.343-5.093-1.034c-1.837-1.836-1.837-4.816,0-6.653c1.837-1.837,4.817-1.837,6.654,0
		c1.377,1.377,1.722,3.396,1.035,5.094l2.259,2.258c1.345-0.96,2.91-1.624,4.608-1.907V9.041c-1.687-0.716-2.869-2.388-2.869-4.333
		c0-2.6,2.106-4.705,4.705-4.705c2.6,0,4.706,2.104,4.706,4.705c0,1.945-1.185,3.617-2.869,4.333v3.195
		c1.697,0.283,3.266,0.947,4.606,1.906l2.261-2.258c-0.688-1.698-0.343-3.716,1.034-5.093c1.839-1.837,4.816-1.837,6.654,0
		c1.838,1.838,1.836,4.817,0,6.653c-1.377,1.377-3.396,1.723-5.093,1.034l-2.26,2.259c0.961,1.347,1.623,2.911,1.907,4.609h3.194
		c0.717-1.686,2.387-2.869,4.334-2.869C44.256,18.476,46.363,20.582,46.363,23.181z"/>
</g>
<g>
</g>
<g>
</g>
<g>
</g>
<g>
</g>
<g>
</g>
<g>
</g>
<g>
</g>
<g>
</g>
<g>
</g>
<g>
</g>
<g>
</g>
<g>
</g>
<g>
</g>
<g>
</g>
<g>
</g>
</svg>
