<?xml version="1.0" encoding="iso-8859-1"?>
<!-- Generator: Adobe Illustrator 19.0.0, SVG Export Plug-In . SVG Version: 6.00 Build 0)  -->
<svg version="1.1" id="Layer_1" xmlns="http://www.w3.org/2000/svg" xmlns:xlink="http://www.w3.org/1999/xlink" x="0px" y="0px"
	 viewBox="0 0 512 512" style="enable-background:new 0 0 512 512;" xml:space="preserve">
<g>
	<g>
		<path d="M255.701,38.664c-4.358-24.262-38.537-38.426-76.341-31.636c-28.597,5.136-62.614,37.194-77.487,52.505
			c-1.838,1.892-2.651,4.556-2.184,7.153s2.156,4.81,4.538,5.943c19.272,9.179,62.318,27.396,90.914,22.26
			C232.944,88.1,260.059,62.927,255.701,38.664z"/>
	</g>
</g>
<g>
	<g>
		<path d="M377.918,267.559c-22.482-26.962-34.839-60.959-34.839-96.064c0-35.912-23.758-66.266-56.411-76.226
			c7.891-13.71,24.114-37.396,47.989-50.468c4.181-2.29,6.061-7.3,4.403-11.77l-9.93-26.759c-1.004-2.705-3.169-4.816-5.898-5.751
			c-2.73-0.936-5.734-0.595-8.187,0.923c-16.992,10.515-49.616,37.35-54.825,90.441c-42.54,1.666-76.52,36.661-76.52,79.61
			c0,35.183-12.306,69.042-34.838,96.063c-21.555,25.848-34.522,59.106-34.522,95.394c0,82.319,66.733,149.05,149.05,149.05
			s149.05-66.731,149.05-149.05C412.439,326.663,399.471,293.407,377.918,267.559z"/>
	</g>
</g>
<g>
</g>
<g>
</g>
<g>
</g>
<g>
</g>
<g>
</g>
<g>
</g>
<g>
</g>
<g>
</g>
<g>
</g>
<g>
</g>
<g>
</g>
<g>
</g>
<g>
</g>
<g>
</g>
<g>
</g>
</svg>
