<?xml version="1.0" standalone="no"?>
<!DOCTYPE svg PUBLIC "-//W3C//DTD SVG 20010904//EN"
 "http://www.w3.org/TR/2001/REC-SVG-20010904/DTD/svg10.dtd">
<svg version="1.0" xmlns="http://www.w3.org/2000/svg"
 width="981.000000pt" height="980.000000pt" viewBox="0 0 981.000000 980.000000"
 preserveAspectRatio="xMidYMid meet">

<g transform="translate(0.000000,980.000000) scale(0.100000,-0.100000)"
fill="#000000" stroke="none">
<path d="M295 9786 c-147 -36 -252 -145 -284 -294 -16 -75 -16 -9108 0 -9184
33 -156 147 -268 304 -298 44 -8 831 -10 2990 -8 l2930 3 60 24 c82 33 173
124 206 206 l24 60 3 1525 c3 1679 6 1569 -60 1680 -66 110 -188 170 -343 170
-195 0 -327 -89 -384 -258 -21 -61 -21 -74 -21 -1327 l0 -1265 -2450 0 -2450
0 0 4080 0 4080 2450 0 2450 0 2 -1282 3 -1283 28 -59 c44 -94 88 -140 174
-183 76 -38 78 -38 197 -38 115 0 124 2 188 32 84 40 141 97 181 181 l32 67 3
1515 c2 1122 0 1529 -8 1570 -25 118 -117 227 -228 272 l-57 23 -2945 2
c-2289 1 -2956 -1 -2995 -11z"/>
<path d="M7645 6923 c-213 -77 -332 -281 -281 -482 9 -35 26 -80 38 -100 11
-20 244 -260 517 -533 l496 -498 -2591 0 c-1694 0 -2610 -3 -2645 -10 -77 -14
-171 -63 -214 -111 -20 -23 -51 -71 -69 -108 -29 -62 -31 -73 -31 -181 0 -108
2 -119 31 -181 18 -37 49 -85 69 -108 43 -48 137 -97 214 -111 35 -7 949 -10
2640 -10 l2585 0 -485 -487 c-288 -289 -497 -506 -512 -533 -14 -25 -33 -72
-42 -104 -51 -175 49 -383 224 -469 61 -30 72 -32 171 -32 179 0 105 -62 1040
870 448 446 834 826 857 844 187 143 189 498 2 641 -24 18 -411 399 -859 845
-770 767 -819 813 -880 840 -84 37 -200 44 -275 18z"/>
</g>
</svg>
