<?xml version="1.0" encoding="utf-8"?>
<svg viewBox="188.434 82.101 494.92 510.847" xmlns="http://www.w3.org/2000/svg">
  <g id="Layer_1" transform="matrix(-1, 0, 0, -1, 384.194885, 503.92627)">
    <title>Layer 1</title>
    <g id="g-2" transform="matrix(-1, 0, 0, -1, 152.097558, 368.266225)">
      <title>Layer 1</title>
      <g id="g-4" transform="matrix(-1, 0, 0, -1, 295.423035, 361.195465)">
        <title>Layer 1</title>
        <g transform="matrix(-0.94929, -0.000016, 0.00419, -0.94929, 400.913055, 425.259064)" stroke="null" id="g-5" style="">
          <path opacity="undefined" d="m276.58659,16.62896l0,221l-148.04806,0l0,-221l148.04806,0z" id="path-9" style="stroke: rgb(0, 0, 0); paint-order: fill; stroke-width: 0px;"/>
          <path opacity="undefined" d="m340.74075,226.2963l-136.94444,164l-136.94444,-164l273.88889,0z" id="path-10" style="stroke: rgb(0, 0, 0); paint-order: fill; stroke-width: 0px;"/>
          <path opacity="undefined" d="m276.58659,16.62896l0,221l-148.04806,0l0,-221l148.04806,0z" id="path-11" style="stroke: rgb(0, 0, 0); paint-order: fill; stroke-width: 0px;"/>
          <path opacity="undefined" d="m340.74075,226.2963l-136.94444,164l-136.94444,-164l273.88889,0z" id="path-12" style="stroke: rgb(0, 0, 0); paint-order: fill; stroke-width: 0px;"/>
        </g>
        <rect x="-139.437" y="-96.093" width="459.065" height="87.461" style="stroke: rgb(0, 0, 0);"/>
        <g transform="matrix(0.94929, 0.000016, -0.00419, 0.94929, -217.659592, 44.24437)" stroke="null" id="g-6" style="">
          <path opacity="undefined" d="m276.58659,16.62896l0,221l-148.04806,0l0,-221l148.04806,0z" id="path-13" style="stroke: rgb(0, 0, 0); paint-order: fill; stroke-width: 0px;"/>
          <path opacity="undefined" d="m340.74075,226.2963l-136.94444,164l-136.94444,-164l273.88889,0z" id="path-14" style="stroke: rgb(0, 0, 0); paint-order: fill; stroke-width: 0px;"/>
          <path opacity="undefined" d="m276.58659,16.62896l0,221l-148.04806,0l0,-221l148.04806,0z" id="path-15" style="stroke: rgb(0, 0, 0); paint-order: fill; stroke-width: 0px;"/>
          <path opacity="undefined" d="m340.74075,226.2963l-136.94444,164l-136.94444,-164l273.88889,0z" id="path-16" style="stroke: rgb(0, 0, 0); paint-order: fill; stroke-width: 0px;"/>
        </g>
      </g>
    </g>
  </g>
</svg>