<?xml version="1.0" encoding="iso-8859-1"?>
<!-- Generator: Adobe Illustrator 17.1.0, SVG Export Plug-In . SVG Version: 6.00 Build 0)  -->
<!DOCTYPE svg PUBLIC "-//W3C//DTD SVG 1.1//EN" "http://www.w3.org/Graphics/SVG/1.1/DTD/svg11.dtd">
<svg version="1.1" id="Capa_1" xmlns="http://www.w3.org/2000/svg" xmlns:xlink="http://www.w3.org/1999/xlink" x="0px" y="0px"
	 viewBox="0 0 276.207 276.207" style="enable-background:new 0 0 276.207 276.207;" xml:space="preserve">
<path d="M262.24,172.91c0-0.82-0.136-1.606-0.379-2.344V43.641C261.861,14.99,199.508,0,137.914,0S13.967,14.99,13.967,43.641
	v188.926c0,28.65,62.354,43.641,123.947,43.641s123.947-14.99,123.947-43.641v-55.866C262.109,175.465,262.24,174.202,262.24,172.91
	z M28.967,65.614c22.171,14.291,65.744,21.667,108.947,21.667c23.078,0,45.5-2.062,64.842-5.961c4.061-0.819,6.688-4.774,5.87-8.835
	s-4.772-6.691-8.834-5.869c-18.382,3.706-39.779,5.665-61.877,5.665c-30.371,0-58.824-3.64-80.118-10.248
	c-19.915-6.182-28.83-13.691-28.83-18.393s8.915-12.211,28.83-18.393C79.09,18.64,107.543,15,137.914,15s58.824,3.64,80.118,10.248
	c19.915,6.181,28.83,13.691,28.83,18.393v62.997c0,4.701-8.915,12.211-28.83,18.392c-21.293,6.608-49.747,10.248-80.118,10.248
	c-30.371,0-58.824-3.64-80.118-10.248c-19.915-6.181-28.83-13.69-28.83-18.392V65.614z M218.032,250.959
	c-21.293,6.608-49.747,10.248-80.118,10.248s-58.824-3.64-80.118-10.248c-19.915-6.182-28.83-13.691-28.83-18.393V128.611
	c22.171,14.291,65.744,21.667,108.947,21.667s86.776-7.376,108.947-21.667v46.071c-1.877,4.681-10.88,11.167-28.451,16.62
	c-21.294,6.608-49.747,10.248-80.118,10.248c-30.372,0-58.825-3.64-80.118-10.248c-3.958-1.227-8.158,0.984-9.386,4.94
	c-1.228,3.956,0.984,8.158,4.94,9.386c22.694,7.043,52.726,10.922,84.564,10.922c42.961,0,86.284-7.295,108.568-21.428v37.445
	C246.861,237.268,237.947,244.778,218.032,250.959z"/>
<g>
</g>
<g>
</g>
<g>
</g>
<g>
</g>
<g>
</g>
<g>
</g>
<g>
</g>
<g>
</g>
<g>
</g>
<g>
</g>
<g>
</g>
<g>
</g>
<g>
</g>
<g>
</g>
<g>
</g>
</svg>
