<?xml version="1.0" encoding="iso-8859-1"?>
<!-- Generator: Adobe Illustrator 19.0.0, SVG Export Plug-In . SVG Version: 6.00 Build 0)  -->
<svg version="1.1" id="Layer_1" xmlns="http://www.w3.org/2000/svg" xmlns:xlink="http://www.w3.org/1999/xlink" x="0px" y="0px"
	 viewBox="0 0 501.61 501.61" style="enable-background:new 0 0 501.61 501.61;" xml:space="preserve">
<g>
	<g>
		<path d="M409.938,396.011c-33.067-14.933-61.867-6.4-86.4,0c-14.933,4.267-29.867,7.467-45.867,7.467
			c-32,0-59.733-2.133-73.6-19.2c-2.133-3.2-4.267-6.4-5.333-10.667l70.4-7.467c5.333,0,10.667-3.2,13.867-7.467
			c3.2-4.267,5.333-9.6,4.267-14.933l-20.267-185.6l13.867-1.067c8.533-1.067,16-6.4,18.133-14.933
			c2.133-8.533-1.067-17.067-7.467-22.4L148.604,4.544c-4.267-3.2-9.6-5.333-14.933-4.267c-5.333,1.067-10.667,3.2-13.867,7.467
			L5.671,150.678c-5.333,7.467-6.4,16-2.133,23.467c3.2,6.4,10.667,10.667,18.133,10.667c0,0,1.067,0,2.133,0l13.867-1.067
			l20.267,185.6c1.067,10.667,9.6,18.133,20.267,18.133c1.067,0,2.133,0,2.133,0l75.733-8.533c2.133,11.733,7.467,22.4,14.933,32
			c27.733,33.067,72.533,34.133,105.6,35.2h3.2c21.333,0,39.467-5.333,55.467-9.6c22.4-6.4,38.4-10.667,57.6-2.133
			c10.667,4.266,23.467,0,27.733-10.667S420.604,400.277,409.938,396.011z M241.404,297.877l-150.4-120.533l135.467-14.934
			L241.404,297.877z M68.604,137.877l70.4-87.467l86.4,70.4L68.604,137.877z M97.404,342.677l-12.8-116.267l129.067,103.467
			L97.404,342.677z"/>
	</g>
</g>
<g>
	<g>
		<path d="M462.204,349.077c-6.4-9.6-19.2-10.667-28.8-4.267l-9.6,7.467c-9.6,6.4-10.667,19.2-4.267,28.8
			c4.267,5.333,10.667,8.533,17.067,8.533c4.267,0,8.533-1.067,11.733-4.267l9.6-7.467
			C467.538,371.477,468.604,358.677,462.204,349.077z"/>
	</g>
</g>
<g>
	<g>
		<path d="M454.737,465.344l-8.533-8.533c-8.533-7.467-22.4-7.467-29.867,1.067c-7.467,8.533-7.467,22.4,1.067,29.867l8.533,8.533
			c3.2,3.2,8.533,5.333,13.867,5.333c5.333,0,10.667-2.133,16-6.4C463.271,486.677,463.271,472.81,454.737,465.344z"/>
	</g>
</g>
<g>
	<g>
		<path d="M482.471,407.744l-11.733-2.133c-10.667-1.067-21.333,6.4-23.467,18.133c-1.067,10.667,6.4,21.333,18.133,23.467
			l11.733,2.133c1.067,0,2.133,0,3.2,0c10.667,0,19.2-7.467,20.267-18.133C501.671,420.544,494.204,409.877,482.471,407.744z"/>
	</g>
</g>
<g>
</g>
<g>
</g>
<g>
</g>
<g>
</g>
<g>
</g>
<g>
</g>
<g>
</g>
<g>
</g>
<g>
</g>
<g>
</g>
<g>
</g>
<g>
</g>
<g>
</g>
<g>
</g>
<g>
</g>
</svg>
