<?xml version="1.0" standalone="no"?>
<!DOCTYPE svg PUBLIC "-//W3C//DTD SVG 20010904//EN"
 "http://www.w3.org/TR/2001/REC-SVG-20010904/DTD/svg10.dtd">
<svg version="1.0" xmlns="http://www.w3.org/2000/svg"
 width="980.000000pt" height="916.000000pt" viewBox="0 0 980.000000 916.000000"
 preserveAspectRatio="xMidYMid meet">

<g transform="translate(0.000000,916.000000) scale(0.100000,-0.100000)"
fill="#000000" stroke="none">
<path d="M4785 9144 c-258 -42 -509 -220 -679 -481 -93 -145 -3971 -7196
-4012 -7297 -68 -167 -87 -262 -87 -436 0 -184 17 -264 88 -405 125 -250 348
-410 680 -488 l90 -22 3975 -3 c2952 -2 3999 0 4070 8 151 19 274 54 395 115
187 93 317 220 401 390 71 144 87 222 87 405 0 174 -19 269 -87 436 -19 48
-498 926 -1062 1953 -565 1026 -1451 2636 -1969 3576 -518 941 -963 1743 -990
1784 -59 89 -195 234 -278 297 -73 55 -219 127 -302 149 -60 16 -263 28 -320
19z m183 -764 c22 -16 59 -53 80 -82 22 -29 837 -1502 1812 -3273 975 -1771
1858 -3375 1962 -3564 191 -346 238 -453 238 -534 0 -52 -29 -102 -77 -129
-86 -51 124 -48 -4115 -46 -3778 3 -3945 4 -3996 21 -30 10 -70 33 -89 51 -31
28 -37 40 -41 87 -8 99 23 163 456 951 225 409 1108 2012 1962 3563 853 1551
1570 2844 1591 2873 49 64 112 112 149 112 15 0 45 -13 68 -30z"/>
<path d="M4780 6523 c-36 -10 -85 -30 -110 -45 -67 -39 -147 -128 -183 -205
l-32 -68 0 -1391 0 -1390 37 -75 c111 -225 361 -317 582 -216 31 14 72 38 93
54 56 43 120 137 143 210 20 64 20 91 20 1418 0 1288 -1 1356 -18 1413 -69
221 -310 355 -532 295z"/>
<path d="M4775 2637 c-140 -47 -243 -145 -295 -282 -16 -45 -22 -81 -22 -145
0 -177 96 -325 260 -403 63 -30 74 -32 177 -32 91 1 120 5 168 24 109 43 204
138 249 251 18 45 22 75 22 160 0 85 -4 115 -22 160 -46 113 -141 209 -249
251 -72 27 -227 36 -288 16z"/>
</g>
</svg>
