<?xml version="1.0" standalone="no"?>
<!DOCTYPE svg PUBLIC "-//W3C//DTD SVG 20010904//EN"
 "http://www.w3.org/TR/2001/REC-SVG-20010904/DTD/svg10.dtd">
<svg version="1.0" xmlns="http://www.w3.org/2000/svg"
 width="981.000000pt" height="810.000000pt" viewBox="0 0 981.000000 810.000000"
 preserveAspectRatio="xMidYMid meet">

<g transform="translate(0.000000,810.000000) scale(0.100000,-0.100000)"
fill="#000000" stroke="none">
<path d="M373 8086 c-173 -42 -317 -189 -352 -359 -8 -37 -10 -909 -9 -2957
l3 -2905 23 -58 c51 -126 154 -225 287 -278 l60 -24 927 -3 c511 -1 928 1 928
5 0 4 -132 140 -293 303 -306 308 -358 372 -443 538 l-45 87 -252 5 -252 5 0
2355 0 2355 2351 3 2351 2 6 -122 c4 -66 7 -1033 7 -2147 l0 -2026 470 470
470 470 0 1926 c0 1240 -4 1945 -10 1980 -24 131 -129 275 -241 331 -124 62
102 58 -3054 57 -2271 -1 -2891 -3 -2932 -13z"/>
<path d="M9198 4981 c-31 -10 -79 -31 -105 -46 -32 -18 -670 -649 -1933 -1911
l-1885 -1884 -1105 1105 c-608 608 -1125 1119 -1150 1135 -84 53 -162 73 -275
68 -91 -4 -108 -8 -176 -41 -103 -49 -177 -123 -225 -224 -34 -70 -38 -87 -42
-178 -5 -113 15 -191 68 -275 16 -25 618 -633 1337 -1351 1217 -1215 1312
-1308 1369 -1332 138 -60 278 -59 413 4 62 29 181 147 2147 2113 1626 1626
2088 2093 2112 2137 99 177 75 394 -62 546 -92 102 -209 153 -348 152 -51 0
-105 -7 -140 -18z"/>
</g>
</svg>
